<?xml version="1.0" encoding="UTF-8" standalone="no"?>
<svg
   xmlns:dc="http://purl.org/dc/elements/1.1/"
   xmlns:cc="http://creativecommons.org/ns#"
   xmlns:rdf="http://www.w3.org/1999/02/22-rdf-syntax-ns#"
   xmlns:svg="http://www.w3.org/2000/svg"
   xmlns="http://www.w3.org/2000/svg"
   xmlns:sodipodi="http://sodipodi.sourceforge.net/DTD/sodipodi-0.dtd"
   xmlns:inkscape="http://www.inkscape.org/namespaces/inkscape"
   inkscape:export-ydpi="24.000002"
   inkscape:export-xdpi="24.000002"
   inkscape:export-filename="/home/yixuan/Pictures/JLearn/JLearn-full_sm.png"
   sodipodi:docname="JLearn-logo.svg"
   inkscape:version="1.0 (6e3e5246a0, 2020-05-07)"
   id="svg8"
   version="1.1"
   viewBox="0 0 79.375026 33.866668"
   height="128"
   width="300">
  <defs
     id="defs2" />
  <sodipodi:namedview
     inkscape:window-maximized="1"
     inkscape:window-y="27"
     inkscape:window-x="67"
     inkscape:window-height="1025"
     inkscape:window-width="1853"
     inkscape:snap-global="true"
     inkscape:snap-nodes="true"
     units="px"
     showgrid="false"
     inkscape:document-rotation="0"
     inkscape:current-layer="layer1"
     inkscape:document-units="mm"
     inkscape:cy="39.776736"
     inkscape:cx="156.12182"
     inkscape:zoom="2.0944646"
     inkscape:pageshadow="2"
     inkscape:pageopacity="0.0"
     borderopacity="1.0"
     bordercolor="#666666"
     pagecolor="#ffffff"
     id="base" />
  <metadata
     id="metadata5">
    <rdf:RDF>
      <cc:Work
         rdf:about="">
        <dc:format>image/svg+xml</dc:format>
        <dc:type
           rdf:resource="http://purl.org/dc/dcmitype/StillImage" />
        <dc:title />
      </cc:Work>
    </rdf:RDF>
  </metadata>
  <g
     id="layer1"
     inkscape:groupmode="layer"
     inkscape:label="Layer 1">
    <g
       style="font-style:normal;font-weight:normal;font-size:19.6644px;line-height:1.25;font-family:sans-serif;fill:#5382a1;fill-opacity:1;stroke:none;stroke-width:0.491611"
       id="text42"
       aria-label="J">
      <path
         id="path849"
         style="fill:#5382a1;fill-opacity:1;stroke-width:0.491611"
         d="m 12.874534,7.7972545 h 1.939555 V 21.134096 q 0,2.592475 -0.988981,3.763889 Q 12.845729,26.0694 10.66613,26.0694 H 9.9267947 v -1.632299 h 0.6049103 q 1.286636,0 1.814733,-0.720132 0.528096,-0.720132 0.528096,-2.582873 z" />
    </g>
    <g
       style="font-style:normal;font-weight:normal;font-size:19.6644px;line-height:1.25;font-family:sans-serif;fill:#f8981d;fill-opacity:1;stroke:none;stroke-width:0.491612"
       id="text42-7"
       transform="scale(-1,1)"
       aria-label="J">
      <path
         id="path861"
         style="fill:#f8981d;fill-opacity:1;stroke-width:0.491612"
         d="m -22.159829,7.7972545 h 1.939555 V 21.134096 q 0,2.592475 -0.988981,3.763889 -0.97938,1.171415 -3.158979,1.171415 h -0.739335 v -1.632299 h 0.604911 q 1.286635,0 1.814732,-0.720132 0.528097,-0.720132 0.528097,-2.582873 z" />
    </g>
    <g
       style="font-style:normal;font-weight:normal;font-size:19.8595px;line-height:1.25;font-family:sans-serif;fill:#f8981d;fill-opacity:1;stroke:none;stroke-width:0.496488"
       id="text18"
       aria-label="earn">
      <path
         id="path852"
         style="fill:#f8981d;fill-opacity:1;stroke-width:0.496488"
         d="m 37.477122,19.88984 v 0.872732 h -8.203681 q 0.116364,1.842434 1.10546,2.812136 0.998794,0.960006 2.773349,0.960006 1.027884,0 1.987889,-0.252123 0.969702,-0.252123 1.920011,-0.756368 v 1.687282 q -0.960006,0.407275 -1.968496,0.62061 -1.00849,0.213334 -2.046071,0.213334 -2.598802,0 -4.121235,-1.512735 -1.512735,-1.512736 -1.512735,-4.092144 0,-2.666681 1.435159,-4.227901 1.444856,-1.570918 3.888506,-1.570918 2.191527,0 3.461837,1.415765 1.280007,1.406069 1.280007,3.830324 z m -1.784253,-0.523639 q -0.01939,-1.46425 -0.824246,-2.336982 -0.795156,-0.872732 -2.113951,-0.872732 -1.493342,0 -2.395165,0.843641 -0.892126,0.84364 -1.027884,2.37577 z" />
      <path
         id="path854"
         style="fill:#f8981d;fill-opacity:1;stroke-width:0.496488"
         d="m 45.341406,20.306812 q -2.162436,0 -2.99638,0.494548 -0.833944,0.494548 -0.833944,1.687282 0,0.950308 0.62061,1.512735 0.630306,0.552731 1.706676,0.552731 1.483644,0 2.37577,-1.047279 0.901823,-1.056975 0.901823,-2.802439 v -0.397578 z m 3.558807,-0.736974 v 6.196397 h -1.784252 v -1.648493 q -0.610912,0.989096 -1.522432,1.46425 -0.91152,0.465457 -2.230315,0.465457 -1.667888,0 -2.656984,-0.930914 -0.9794,-0.940611 -0.9794,-2.511529 0,-1.832737 1.221825,-2.763651 1.231522,-0.930914 3.665474,-0.930914 h 2.501832 v -0.174547 q 0,-1.231521 -0.81455,-1.900616 -0.804853,-0.678791 -2.269103,-0.678791 -0.930914,0 -1.813343,0.223031 -0.882429,0.223032 -1.696979,0.669095 v -1.648494 q 0.979399,-0.378184 1.900617,-0.562427 0.921217,-0.193941 1.793949,-0.193941 2.356376,0 3.520019,1.221825 1.163642,1.221825 1.163642,3.704262 z" />
      <path
         id="path856"
         style="fill:#f8981d;fill-opacity:1;stroke-width:0.496488"
         d="m 58.878449,16.573459 q -0.300608,-0.174547 -0.659398,-0.252123 -0.349093,-0.08727 -0.775762,-0.08727 -1.512735,0 -2.327285,0.989096 -0.804853,0.979399 -0.804853,2.821833 v 5.721243 H 52.517202 V 14.905571 h 1.793949 v 1.687282 q 0.562428,-0.989097 1.464251,-1.464251 0.901823,-0.484851 2.191527,-0.484851 0.184243,0 0.407275,0.02909 0.223031,0.01939 0.494548,0.06788 z" />
      <path
         id="path858"
         style="fill:#f8981d;fill-opacity:1;stroke-width:0.496488"
         d="m 69.448204,19.211049 v 6.555186 h -1.784252 v -6.497004 q 0,-1.541827 -0.601215,-2.307892 -0.601215,-0.766064 -1.803646,-0.766064 -1.444856,0 -2.2788,0.921217 -0.833944,0.921217 -0.833944,2.511528 v 6.138215 H 60.352398 V 14.905571 h 1.793949 v 1.687282 q 0.640003,-0.9794 1.503038,-1.464251 0.872732,-0.484851 2.007284,-0.484851 1.871525,0 2.83153,1.163643 0.960005,1.153945 0.960005,3.403655 z" />
    </g>
  </g>
</svg>
