<?xml version="1.0" encoding="UTF-8"?>
<svg width="232.96" height="77.06" version="1.1" viewBox="0 0 61.638 20.389" xmlns="http://www.w3.org/2000/svg" xmlns:cc="http://creativecommons.org/ns#" xmlns:dc="http://purl.org/dc/elements/1.1/" xmlns:rdf="http://www.w3.org/1999/02/22-rdf-syntax-ns#">
 <metadata>
  <rdf:RDF>
   <cc:Work rdf:about="">
    <dc:format>image/svg+xml</dc:format>
    <dc:type rdf:resource="http://purl.org/dc/dcmitype/StillImage"/>
    <dc:title/>
   </cc:Work>
  </rdf:RDF>
 </metadata>
 <g transform="translate(-8.8685 -6.7389)">
  <g fill="#5382a1" aria-label="J">
   <path d="m12.875 7.7973h1.9396v13.337q0 2.5925-0.98898 3.7639-0.97938 1.1714-3.159 1.1714h-0.73934v-1.6323h0.60491q1.2866 0 1.8147-0.72013 0.5281-0.72013 0.5281-2.5829z" fill="#5382a1" stroke-width=".49161"/>
  </g>
  <g transform="scale(-1,1)" fill="#f8981d" aria-label="J">
   <path d="m-22.16 7.7973h1.9396v13.337q0 2.5925-0.98898 3.7639-0.97938 1.1714-3.159 1.1714h-0.73934v-1.6323h0.60491q1.2866 0 1.8147-0.72013t0.5281-2.5829z" fill="#f8981d" stroke-width=".49161"/>
  </g>
  <g transform="translate(0 .10017)" fill="#f8981d" stroke-width=".49649" aria-label="earn">
   <path d="m37.477 19.89v0.87273h-8.2037q0.11636 1.8424 1.1055 2.8121 0.99879 0.96001 2.7733 0.96001 1.0279 0 1.9879-0.25212 0.9697-0.25212 1.92-0.75637v1.6873q-0.96001 0.40728-1.9685 0.62061-1.0085 0.21333-2.0461 0.21333-2.5988 0-4.1212-1.5127-1.5127-1.5127-1.5127-4.0921 0-2.6667 1.4352-4.2279 1.4449-1.5709 3.8885-1.5709 2.1915 0 3.4618 1.4158 1.28 1.4061 1.28 3.8303zm-1.7843-0.52364q-0.01939-1.4642-0.82425-2.337-0.79516-0.87273-2.114-0.87273-1.4933 0-2.3952 0.84364-0.89213 0.84364-1.0279 2.3758z"/>
   <path d="m45.341 20.307q-2.1624 0-2.9964 0.49455t-0.83394 1.6873q0 0.95031 0.62061 1.5127 0.63031 0.55273 1.7067 0.55273 1.4836 0 2.3758-1.0473 0.90182-1.057 0.90182-2.8024v-0.39758zm3.5588-0.73697v6.1964h-1.7843v-1.6485q-0.61091 0.9891-1.5224 1.4642-0.91152 0.46546-2.2303 0.46546-1.6679 0-2.657-0.93091-0.9794-0.94061-0.9794-2.5115 0-1.8327 1.2218-2.7637 1.2315-0.93091 3.6655-0.93091h2.5018v-0.17455q0-1.2315-0.81455-1.9006-0.80485-0.67879-2.2691-0.67879-0.93091 0-1.8133 0.22303-0.88243 0.22303-1.697 0.6691v-1.6485q0.9794-0.37818 1.9006-0.56243 0.92122-0.19394 1.7939-0.19394 2.3564 0 3.52 1.2218 1.1636 1.2218 1.1636 3.7043z"/>
   <path d="m58.878 16.573q-0.30061-0.17455-0.6594-0.25212-0.34909-0.08727-0.77576-0.08727-1.5127 0-2.3273 0.9891-0.80485 0.9794-0.80485 2.8218v5.7212h-1.7939v-10.861h1.7939v1.6873q0.56243-0.9891 1.4643-1.4643 0.90182-0.48485 2.1915-0.48485 0.18424 0 0.40728 0.02909 0.22303 0.01939 0.49455 0.06788z"/>
   <path d="m69.448 19.211v6.5552h-1.7843v-6.497q0-1.5418-0.60122-2.3079-0.60122-0.76606-1.8036-0.76606-1.4449 0-2.2788 0.92122t-0.83394 2.5115v6.1382h-1.7939v-10.861h1.7939v1.6873q0.64-0.9794 1.503-1.4643 0.87273-0.48485 2.0073-0.48485 1.8715 0 2.8315 1.1636 0.96 1.1539 0.96 3.4037z"/>
  </g>
 </g>
</svg>
